{
  "asset": { "version": "2.0", "generator": "Genesis lighting isolation scene" },
  "scene": 0,
  "scenes": [{ "nodes": [0] }],
  "nodes": [{ "mesh": 0, "name": "Ground Plane" }],
  "meshes": [{
    "name": "Ground Plane",
    "primitives": [{
      "attributes": { "POSITION": 0, "NORMAL": 1 },
      "indices": 2,
      "material": 0,
      "mode": 4
    }]
  }],
  "materials": [{
    "name": "Neutral rough ground",
    "pbrMetallicRoughness": {
      "baseColorFactor": [0.42, 0.42, 0.42, 1.0],
      "metallicFactor": 0.0,
      "roughnessFactor": 0.68
    }
  }],
  "buffers": [{
    "byteLength": 108,
    "uri": "data:application/octet-stream;base64,"
  }],
  "bufferViews": [
    { "buffer": 0, "byteOffset": 0, "byteLength": 48, "target": 34962 },
    { "buffer": 0, "byteOffset": 48, "byteLength": 48, "target": 34962 },
    { "buffer": 0, "byteOffset": 96, "byteLength": 12, "target": 34963 }
  ],
  "accessors": [
    {
      "bufferView": 0,
      "componentType": 5126,
      "count": 4,
      "type": "VEC3",
      "min": [-12.0, 0.0, -8.0],
      "max": [12.0, 0.0, 8.0]
    },
    { "bufferView": 1, "componentType": 5126, "count": 4, "type": "VEC3" },
    { "bufferView": 2, "componentType": 5123, "count": 6, "type": "SCALAR" }
  ]
}
